# xmcd CD database file
#
# Track frame offsets:
#	150
#	26970
#	57335
#	81747
#	104322
#	134350
#	152815
#	174642
#	202759
#	224935
#
# Disc length: 3441 seconds
#
# Revision: 0
# Processed by: cddbd v1.5.1PL0 Copyright (c) Steve Scherf et al.
# Submitted via: CDex 1.51
#
DISCID=990d6f0a
DTITLE=Dann Zinn - Ten Songs
DYEAR=1995
DGENRE=Jazz
TTITLE0=Never Together, Never Apart
TTITLE1=Zaria Z
TTITLE2=For Leonard
TTITLE3=Alana
TTITLE4=Djakarta
TTITLE5=Lost At The Zoo
TTITLE6=Shattered Glass
TTITLE7=I Can't Remember My Dreams
TTITLE8=Ten Or One
TTITLE9=I*EWE*WE
EXTD=YEAR: 1995
EXTT0=
EXTT1=
EXTT2=
EXTT3=
EXTT4=
EXTT5=
EXTT6=
EXTT7=
EXTT8=
EXTT9=
PLAYORDER=
